<svg width="5" height="23" viewBox="0 0 5 23" fill="none" xmlns="http://www.w3.org/2000/svg">
<g clip-path="url(#clip0_216_456)">
<path d="M5.21576 11.5C5.21576 12.1629 4.9411 12.7986 4.45221 13.2673C3.96332 13.736 3.30025 13.9993 2.60886 13.9993C1.91746 13.9993 1.25439 13.736 0.765497 13.2673C0.276608 12.7986 0.00195313 12.1629 0.00195312 11.5C0.00195312 10.8371 0.276608 10.2014 0.765497 9.73271C1.25439 9.26399 1.91746 9.00067 2.60886 9.00067C3.30025 9.00067 3.96332 9.26399 4.45221 9.73271C4.9411 10.2014 5.21576 10.8371 5.21576 11.5ZM5.21576 2.49933C5.21576 3.1622 4.9411 3.79791 4.45221 4.26663C3.96332 4.73535 3.30025 4.99867 2.60886 4.99867C1.91746 4.99867 1.25439 4.73535 0.765497 4.26663C0.276608 3.79791 0.00195313 3.1622 0.00195312 2.49933C0.00195312 1.83647 0.276608 1.20075 0.765497 0.732038C1.25439 0.263322 1.91746 0 2.60886 0C3.30025 0 3.96332 0.263322 4.45221 0.732038C4.9411 1.20075 5.21576 1.83647 5.21576 2.49933ZM5.21576 20.4997C5.21576 21.1626 4.9411 21.7983 4.45221 22.267C3.96332 22.7357 3.30025 22.999 2.60886 22.999C1.91746 22.999 1.25439 22.7357 0.765497 22.267C0.276608 21.7983 0.00195313 21.1626 0.00195312 20.4997C0.00195312 19.8368 0.276608 19.2011 0.765497 18.7324C1.25439 18.2637 1.91746 18.0004 2.60886 18.0004C3.30025 18.0004 3.96332 18.2637 4.45221 18.7324C4.9411 19.2011 5.21576 19.8368 5.21576 20.4997Z" fill="black"/>
</g>
<defs>
<clipPath id="clip0_216_456">
<rect width="5" height="23" fill="white"/>
</clipPath>
</defs>
</svg>
