<svg width="273" height="282" viewBox="0 0 273 282" fill="none" xmlns="http://www.w3.org/2000/svg">
<path d="M2.01579 104.148L265.652 102.237L272.995 281.474L0.00390625 278.948L2.01579 104.148Z" fill="#713CA4"/>
<path d="M2.00391 104.148L126.786 3.18451C129.35 1.11255 132.55 -0.0121177 135.846 9.84798e-05C139.142 0.0123147 142.334 1.16066 144.882 3.25157L265.651 102.237" fill="#713CA4"/>
<g opacity="0.3">
<path d="M2.00488 104.148L126.787 3.18451C129.351 1.11255 132.551 -0.0121177 135.847 9.84798e-05C139.143 0.0123147 142.334 1.16066 144.883 3.25157L265.652 102.237" fill="black"/>
</g>
<path d="M0.00368465 278.948C-0.320454 278.635 20.7821 255.588 47.149 227.477C73.516 199.366 95.1439 176.822 95.4792 177.124C95.8145 177.426 74.7008 200.473 48.3338 228.595C21.9668 256.717 0.339 279.25 0.00368465 278.948Z" fill="#263238"/>
<path d="M272.995 281.474C272.66 281.776 252.105 259.198 227.09 231.054C202.076 202.91 182.069 179.84 182.382 179.538C182.695 179.236 203.272 201.814 228.286 229.97C253.301 258.125 273.353 281.172 272.995 281.474Z" fill="#263238"/>
<g opacity="0.5">
<path d="M265.653 102.237L133.259 207.995L2.0166 104.148" fill="black"/>
</g>
<path d="M15.2832 113.939L14.8809 31.608L245.723 28.8696L248.328 115.504L133.247 206.609L15.2832 113.939Z" fill="#FAFAFA"/>
<path d="M15.2832 113.939C15.2832 113.939 16.0321 114.498 17.4516 115.604L23.7108 120.478L47.5741 139.11L133.426 206.419H133.135L248.182 115.28L248.07 115.515C247.579 98.9952 247.053 81.6482 246.517 64.0106C246.17 52.1292 245.813 40.3932 245.466 28.8807L245.757 29.1601L14.9144 31.7868L15.0932 31.6079C15.1827 57.5055 15.2609 78.0827 15.3056 92.1883C15.3056 99.2411 15.3056 104.673 15.3056 108.35V112.52C15.3056 113.458 15.3056 113.939 15.3056 113.939C15.3056 113.939 15.3056 113.47 15.3056 112.542C15.3056 111.614 15.3056 110.217 15.3056 108.395C15.3056 104.718 15.2274 99.297 15.1715 92.2553C15.0821 78.1274 14.9479 57.539 14.7803 31.6079V31.4179H14.9591L245.813 28.5901H246.092V28.8807C246.439 40.382 246.785 52.1181 247.143 63.9994C247.679 81.6482 248.193 98.984 248.696 115.515V115.66L248.585 115.75L133.46 206.81L133.314 206.922L133.169 206.81L47.373 139.278L23.655 120.556L17.3957 115.638C15.9874 114.52 15.2832 113.939 15.2832 113.939Z" fill="#263238"/>
<path d="M209.241 70.3371C209.241 70.4936 173.932 70.8401 130.397 71.0972C86.8619 71.3542 51.542 71.4548 51.542 71.2872C51.542 71.1195 86.8396 70.7842 130.397 70.5159C173.955 70.2477 209.241 70.1695 209.241 70.3371Z" fill="#263238"/>
<path d="M209.241 93.5856C209.241 93.7533 173.932 94.0997 130.397 94.3568C86.8619 94.6139 51.542 94.7033 51.542 94.5468C51.542 94.3904 86.8396 94.0439 130.397 93.7756C173.955 93.5074 209.241 93.4291 209.241 93.5856Z" fill="#263238"/>
<path d="M209.241 120.4C209.241 120.556 173.932 120.903 130.397 121.171C86.8619 121.439 51.542 121.517 51.542 121.35C51.542 121.182 86.8396 120.847 130.397 120.59C173.955 120.333 209.241 120.232 209.241 120.4Z" fill="#263238"/>
<path d="M209.241 147.203C209.241 147.37 175.564 147.694 134.019 147.951C92.4732 148.208 58.7963 148.276 58.7852 148.119C58.774 147.963 92.462 147.627 134.019 147.37C175.576 147.113 209.241 147.046 209.241 147.203Z" fill="#263238"/>
<path d="M179.71 170.731C179.407 170.782 179.101 170.804 178.794 170.798L176.133 170.876L166.387 171.032L134.208 171.491C121.645 171.703 110.255 171.77 102.018 171.781H92.271H89.6108C89.3043 171.787 88.9979 171.768 88.6943 171.725C88.997 171.674 89.3039 171.652 89.6108 171.658L92.271 171.591L102.018 171.424L134.197 170.965C146.76 170.753 158.149 170.686 166.376 170.675H176.133H178.794C179.1 170.674 179.406 170.693 179.71 170.731Z" fill="#263238"/>
<path d="M149.991 193.353C149.991 193.51 142.468 193.644 133.225 193.644C123.981 193.644 116.459 193.51 116.459 193.353C116.459 193.197 123.992 193.062 133.225 193.062C142.457 193.062 149.991 193.185 149.991 193.353Z" fill="#263238"/>
<path d="M227.694 175.09C243.095 175.09 255.581 162.604 255.581 147.203C255.581 131.801 243.095 119.315 227.694 119.315C212.292 119.315 199.807 131.801 199.807 147.203C199.807 162.604 212.292 175.09 227.694 175.09Z" fill="#263238"/>
<path d="M220.44 175.09C235.841 175.09 248.327 162.604 248.327 147.203C248.327 131.801 235.841 119.315 220.44 119.315C205.038 119.315 192.553 131.801 192.553 147.203C192.553 162.604 205.038 175.09 220.44 175.09Z" fill="#455A64"/>
<path d="M223.984 134.226V157.407H219.703V137.791H214.796V134.181L223.984 134.226Z" fill="#EBEBEB"/>
</svg>
