<svg width="28" height="28" viewBox="0 0 28 28" fill="none" xmlns="http://www.w3.org/2000/svg">
<path d="M24.3833 2.3335H3.61668C3.27632 2.3335 2.9499 2.4687 2.70922 2.70938C2.46855 2.95005 2.33334 3.27647 2.33334 3.61683V24.3835C2.33334 24.7239 2.46855 25.0503 2.70922 25.291C2.9499 25.5316 3.27632 25.6668 3.61668 25.6668H14.7933V16.6252H11.76V13.1252H14.7933V10.5002C14.7305 9.88388 14.8033 9.26131 15.0065 8.67612C15.2098 8.09094 15.5386 7.5573 15.9699 7.11264C16.4012 6.66799 16.9246 6.32308 17.5033 6.10211C18.082 5.88114 18.7021 5.78946 19.32 5.8335C20.2281 5.82791 21.1357 5.87465 22.0383 5.9735V9.1235H20.1833C18.7133 9.1235 18.4333 9.8235 18.4333 10.8385V13.0902H21.9333L21.4783 16.5902H18.4333V25.6668H24.3833C24.5519 25.6668 24.7188 25.6336 24.8745 25.5691C25.0302 25.5047 25.1716 25.4101 25.2908 25.291C25.41 25.1718 25.5045 25.0303 25.569 24.8746C25.6335 24.7189 25.6667 24.552 25.6667 24.3835V3.61683C25.6667 3.4483 25.6335 3.28142 25.569 3.12572C25.5045 2.97002 25.41 2.82854 25.2908 2.70938C25.1716 2.59021 25.0302 2.49568 24.8745 2.43118C24.7188 2.36669 24.5519 2.3335 24.3833 2.3335Z" fill="#3771C8"/>
</svg>
