<svg width="32" height="32" viewBox="0 0 32 32" fill="none" xmlns="http://www.w3.org/2000/svg">
<path d="M10.1333 23.75L15.8333 18.05L21.5333 23.75L23.75 21.5333L18.05 15.8333L23.75 10.1333L21.5333 7.91667L15.8333 13.6167L10.1333 7.91667L7.91667 10.1333L13.6167 15.8333L7.91667 21.5333L10.1333 23.75ZM15.8333 31.6667C13.6431 31.6667 11.5847 31.2508 9.65833 30.419C7.73195 29.5872 6.05625 28.4594 4.63125 27.0354C3.20625 25.6104 2.07839 23.9347 1.24767 22.0083C0.416945 20.0819 0.00105556 18.0236 0 15.8333C0 13.6431 0.415889 11.5847 1.24767 9.65833C2.07944 7.73195 3.20731 6.05625 4.63125 4.63125C6.05625 3.20625 7.73195 2.07839 9.65833 1.24767C11.5847 0.416945 13.6431 0.00105556 15.8333 0C18.0236 0 20.0819 0.415889 22.0083 1.24767C23.9347 2.07944 25.6104 3.20731 27.0354 4.63125C28.4604 6.05625 29.5888 7.73195 30.4206 9.65833C31.2524 11.5847 31.6677 13.6431 31.6667 15.8333C31.6667 18.0236 31.2508 20.0819 30.419 22.0083C29.5872 23.9347 28.4594 25.6104 27.0354 27.0354C25.6104 28.4604 23.9347 29.5888 22.0083 30.4206C20.0819 31.2524 18.0236 31.6677 15.8333 31.6667Z" fill="#CB4E4E"/>
</svg>
