<svg width="38" height="36" viewBox="0 0 38 36" fill="none" xmlns="http://www.w3.org/2000/svg">
<g clip-path="url(#clip0_247_2034)">
<g clip-path="url(#clip1_247_2034)">
<path d="M25.7855 27.0004V32.1433C25.7855 32.8253 25.4995 33.4793 24.9905 33.9615C24.4815 34.4438 23.7911 34.7147 23.0712 34.7147H4.07122C3.35135 34.7147 2.66096 34.4438 2.15193 33.9615C1.6429 33.4793 1.35693 32.8253 1.35693 32.1433V3.85756C1.35693 3.17558 1.6429 2.52152 2.15193 2.03929C2.66096 1.55705 3.35135 1.28613 4.07122 1.28613H23.0712C23.7911 1.28613 24.4815 1.55705 24.9905 2.03929C25.4995 2.52152 25.7855 3.17558 25.7855 3.85756V9.00042M17.6426 18.0004H36.6426M36.6426 18.0004L31.2141 12.8576M36.6426 18.0004L31.2141 23.1433" stroke="#713CA4" stroke-width="2.71429" stroke-linecap="round" stroke-linejoin="round"/>
</g>
</g>
<defs>
<clipPath id="clip0_247_2034">
<rect width="38" height="36" fill="white"/>
</clipPath>
<clipPath id="clip1_247_2034">
<rect width="38" height="36" fill="white"/>
</clipPath>
</defs>
</svg>
