<svg width="38" height="38" viewBox="0 0 38 38" fill="none" xmlns="http://www.w3.org/2000/svg">
<g clip-path="url(#clip0_247_2020)">
<path d="M18.9998 15.833V22.1663M16.2575 17.4163L21.7422 20.583M21.7422 17.4163L16.2559 20.583M10.6588 15.833V22.1663M7.9165 17.4163L13.4012 20.583M13.4012 17.4163L7.9165 20.583M27.3408 15.833V22.1663M24.5985 17.4163L30.0832 20.583M30.0832 17.4163L24.5969 20.583M34.8332 18.9997C34.8332 24.9704 34.8332 27.9566 32.9775 29.8107C31.1234 31.6663 28.1373 31.6663 22.1665 31.6663H15.8332C9.86242 31.6663 6.87625 31.6663 5.02217 29.8107C3.1665 27.9566 3.1665 24.9704 3.1665 18.9997C3.1665 13.0289 3.1665 10.0428 5.02217 8.18867C6.87625 6.33301 9.86242 6.33301 15.8332 6.33301H22.1665C28.1373 6.33301 31.1234 6.33301 32.9775 8.18867C34.013 9.22259 34.4706 10.608 34.6717 12.6663" stroke="#713CA4" stroke-width="2.375" stroke-linecap="round"/>
</g>
<defs>
<clipPath id="clip0_247_2020">
<rect width="38" height="38" fill="white"/>
</clipPath>
</defs>
</svg>
