<svg width="38" height="38" viewBox="0 0 38 38" fill="none" xmlns="http://www.w3.org/2000/svg">
<path d="M11.0832 21.3751C11.7429 21.3751 12.3039 21.1439 12.7663 20.6816C13.2286 20.2192 13.4592 19.6587 13.4582 19.0001C13.4582 18.3404 13.227 17.7793 12.7647 17.317C12.3023 16.8547 11.7418 16.624 11.0832 16.6251C10.4234 16.6251 9.86242 16.8562 9.40009 17.3186C8.93775 17.7809 8.70712 18.3414 8.70817 19.0001C8.70817 19.6598 8.93934 20.2208 9.40167 20.6832C9.864 21.1455 10.4245 21.3761 11.0832 21.3751ZM18.9998 21.3751C19.6596 21.3751 20.2206 21.1439 20.6829 20.6816C21.1453 20.2192 21.3759 19.6587 21.3748 19.0001C21.3748 18.3404 21.1437 17.7793 20.6813 17.317C20.219 16.8547 19.6585 16.624 18.9998 16.6251C18.3401 16.6251 17.7791 16.8562 17.3168 17.3186C16.8544 17.7809 16.6238 18.3414 16.6248 19.0001C16.6248 19.6598 16.856 20.2208 17.3183 20.6832C17.7807 21.1455 18.3412 21.3761 18.9998 21.3751ZM26.9165 21.3751C27.5762 21.3751 28.1373 21.1439 28.5996 20.6816C29.0619 20.2192 29.2926 19.6587 29.2915 19.0001C29.2915 18.3404 29.0603 17.7793 28.598 17.317C28.1357 16.8547 27.5752 16.624 26.9165 16.6251C26.2568 16.6251 25.6958 16.8562 25.2334 17.3186C24.7711 17.7809 24.5404 18.3414 24.5415 19.0001C24.5415 19.6598 24.7727 20.2208 25.235 20.6832C25.6973 21.1455 26.2578 21.3761 26.9165 21.3751ZM18.9998 34.8334C16.8096 34.8334 14.7512 34.4175 12.8248 33.5857C10.8984 32.754 9.22275 31.6261 7.79775 30.2022C6.37275 28.7772 5.24489 27.1015 4.41417 25.1751C3.58345 23.2487 3.16756 21.1904 3.1665 19.0001C3.1665 16.8098 3.58239 14.7515 4.41417 12.8251C5.24595 10.8987 6.37381 9.223 7.79775 7.798C9.22275 6.373 10.8984 5.24514 12.8248 4.41441C14.7512 3.58369 16.8096 3.1678 18.9998 3.16675C21.1901 3.16675 23.2484 3.58264 25.1748 4.41441C27.1012 5.24619 28.7769 6.37405 30.2019 7.798C31.6269 9.223 32.7553 10.8987 33.5871 12.8251C34.4189 14.7515 34.8342 16.8098 34.8332 19.0001C34.8332 21.1904 34.4173 23.2487 33.5855 25.1751C32.7537 27.1015 31.6259 28.7772 30.2019 30.2022C28.7769 31.6272 27.1012 32.7556 25.1748 33.5873C23.2484 34.4191 21.1901 34.8345 18.9998 34.8334Z" fill="#545454"/>
</svg>
