<svg width="38" height="38" viewBox="0 0 38 38" fill="none" xmlns="http://www.w3.org/2000/svg">
<path d="M33.0081 23.5211L26.0152 20.3876L25.9959 20.3787C25.6328 20.2234 25.2368 20.1611 24.8437 20.1974C24.4505 20.2337 24.0726 20.3674 23.7441 20.5865C23.7054 20.612 23.6682 20.6398 23.6327 20.6696L20.0198 23.7497C17.7309 22.6379 15.3677 20.2926 14.256 18.0334L17.3405 14.3655C17.3702 14.3284 17.3984 14.2913 17.4251 14.2512C17.6395 13.9236 17.7695 13.5481 17.8037 13.1581C17.8379 12.768 17.7752 12.3756 17.621 12.0157V11.9979L14.4786 4.99314C14.2749 4.52298 13.9245 4.13133 13.4799 3.87665C13.0353 3.62196 12.5202 3.51791 12.0116 3.58001C10.0002 3.84469 8.15395 4.83248 6.81765 6.3589C5.48135 7.88533 4.74638 9.84599 4.75001 11.8747C4.75001 23.6606 14.3391 33.2497 26.125 33.2497C28.1537 33.2533 30.1144 32.5184 31.6408 31.1821C33.1672 29.8458 34.155 27.9995 34.4197 25.9881C34.4819 25.4797 34.3781 24.9647 34.1237 24.5201C33.8693 24.0755 33.4779 23.7251 33.0081 23.5211ZM26.125 30.8747C21.0876 30.8692 16.2581 28.8657 12.6961 25.3037C9.13406 21.7417 7.13051 16.9121 7.12501 11.8747C7.11943 10.4252 7.64165 9.02321 8.59415 7.93058C9.54666 6.83794 10.8643 6.12938 12.301 5.9372C12.3004 5.94312 12.3004 5.94909 12.301 5.95501L15.4182 12.9316L12.35 16.6039C12.3189 16.6398 12.2906 16.678 12.2654 16.7182C12.042 17.061 11.911 17.4556 11.885 17.8639C11.859 18.2722 11.9389 18.6803 12.117 19.0487C13.4618 21.7992 16.2331 24.5498 19.0134 25.8931C19.3844 26.0696 19.7949 26.1467 20.2046 26.117C20.6144 26.0874 21.0095 25.9519 21.3513 25.7239C21.3894 25.6982 21.426 25.6705 21.4611 25.6408L25.0696 22.5622L32.0462 25.6868H32.0625C31.8727 27.1256 31.1652 28.4459 30.0723 29.4007C28.9795 30.3556 27.5762 30.8796 26.125 30.8747Z" fill="#713CA4"/>
</svg>
