<svg width="38" height="38" viewBox="0 0 38 38" fill="none" xmlns="http://www.w3.org/2000/svg">
<path d="M18.9998 3.16675C10.2551 3.16675 3.1665 10.2553 3.1665 19.0001C3.1665 27.7448 10.2551 34.8334 18.9998 34.8334C27.7446 34.8334 34.8332 27.7448 34.8332 19.0001C34.8332 10.2553 27.7446 3.16675 18.9998 3.16675Z" stroke="#713CA4" stroke-width="2.375" stroke-linecap="round" stroke-linejoin="round"/>
<path d="M6.76221 29.0478C6.76221 29.0478 10.2915 24.5417 18.9998 24.5417C27.7081 24.5417 31.239 29.0478 31.239 29.0478M18.9998 19C20.2596 19 21.4678 18.4996 22.3585 17.6088C23.2493 16.718 23.7498 15.5098 23.7498 14.25C23.7498 12.9902 23.2493 11.782 22.3585 10.8912C21.4678 10.0004 20.2596 9.5 18.9998 9.5C17.74 9.5 16.5318 10.0004 15.641 10.8912C14.7502 11.782 14.2498 12.9902 14.2498 14.25C14.2498 15.5098 14.7502 16.718 15.641 17.6088C16.5318 18.4996 17.74 19 18.9998 19Z" stroke="#713CA4" stroke-width="2.375" stroke-linecap="round" stroke-linejoin="round"/>
</svg>
