<svg width="32" height="32" viewBox="0 0 32 32" fill="none" xmlns="http://www.w3.org/2000/svg">
<path d="M15.9207 25.5003C16.4748 25.5003 16.9435 25.3087 17.3267 24.9256C17.7098 24.5424 17.9009 24.0743 17.8998 23.5212C17.8998 22.967 17.7088 22.4983 17.3267 22.1152C16.9446 21.732 16.4759 21.5409 15.9207 21.542C15.3665 21.542 14.8984 21.7336 14.5163 22.1167C14.1341 22.4999 13.9426 22.968 13.9415 23.5212C13.9415 24.0753 14.1331 24.544 14.5163 24.9272C14.8994 25.3103 15.3676 25.5014 15.9207 25.5003ZM14.4957 19.4045H17.4248C17.4248 18.5337 17.5241 17.8475 17.7225 17.3462C17.921 16.8448 18.4814 16.1587 19.404 15.2878C20.0901 14.6017 20.6311 13.9483 21.0269 13.3277C21.4228 12.707 21.6207 11.9618 21.6207 11.092C21.6207 9.61421 21.0797 8.47949 19.9978 7.68783C18.9158 6.89616 17.6359 6.50033 16.1582 6.50033C14.654 6.50033 13.4333 6.89616 12.4959 7.68783C11.5586 8.47949 10.9057 9.42949 10.5373 10.5378L13.1498 11.567C13.2818 11.092 13.5789 10.5774 14.0413 10.0232C14.5036 9.46908 15.2092 9.19199 16.1582 9.19199C17.0026 9.19199 17.6359 9.42316 18.0582 9.88549C18.4804 10.3478 18.6915 10.8555 18.6915 11.4087C18.6915 11.9364 18.5332 12.4315 18.2165 12.8938C17.8998 13.3562 17.504 13.7847 17.029 14.1795C15.8679 15.2087 15.1554 15.9871 14.8915 16.5149C14.6276 17.0427 14.4957 18.0059 14.4957 19.4045ZM15.9998 31.8337C13.8096 31.8337 11.7512 31.4178 9.82484 30.586C7.89845 29.7542 6.22275 28.6264 4.79775 27.2024C3.37275 25.7774 2.24489 24.1017 1.41417 22.1753C0.583448 20.2489 0.167559 18.1906 0.166504 16.0003C0.166504 13.81 0.582393 11.7517 1.41417 9.82533C2.24595 7.89894 3.37381 6.22324 4.79775 4.79824C6.22275 3.37324 7.89845 2.24538 9.82484 1.41466C11.7512 0.583937 13.8096 0.168048 15.9998 0.166992C18.1901 0.166992 20.2484 0.582881 22.1748 1.41466C24.1012 2.24644 25.7769 3.3743 27.2019 4.79824C28.6269 6.22324 29.7553 7.89894 30.5871 9.82533C31.4189 11.7517 31.8342 13.81 31.8332 16.0003C31.8332 18.1906 31.4173 20.2489 30.5855 22.1753C29.7537 24.1017 28.6259 25.7774 27.2019 27.2024C25.7769 28.6274 24.1012 29.7558 22.1748 30.5876C20.2484 31.4194 18.1901 31.8347 15.9998 31.8337ZM15.9998 28.667C19.5359 28.667 22.5311 27.4399 24.9853 24.9857C27.4394 22.5316 28.6665 19.5364 28.6665 16.0003C28.6665 12.4642 27.4394 9.46908 24.9853 7.01491C22.5311 4.56074 19.5359 3.33366 15.9998 3.33366C12.4637 3.33366 9.46859 4.56074 7.01442 7.01491C4.56025 9.46908 3.33317 12.4642 3.33317 16.0003C3.33317 19.5364 4.56025 22.5316 7.01442 24.9857C9.46859 27.4399 12.4637 28.667 15.9998 28.667Z" fill="#713CA4"/>
</svg>
