<svg width="24" height="24" viewBox="0 0 24 24" fill="none" xmlns="http://www.w3.org/2000/svg">
<path d="M12 0.439941L22 3.93994V11.9999C22 16.1269 19.466 19.0119 17.104 20.8029C15.6783 21.874 14.1141 22.7469 12.454 23.3979C12.4251 23.4091 12.3961 23.4201 12.367 23.4309L12.342 23.4399L12.335 23.4419L12.332 23.4429C12.331 23.4429 12.33 23.4429 12 22.4999L11.669 23.4439L11.665 23.4419L11.658 23.4399L11.633 23.4299C11.4994 23.3806 11.3667 23.3289 11.235 23.2749C9.6895 22.6376 8.23117 21.8066 6.895 20.8019C4.535 19.0129 2 16.1279 2 12.0009V3.93994L12 0.439941ZM12 22.4999L11.669 23.4439L12 23.5599L12.331 23.4439L12 22.4999ZM12 21.4279L12.009 21.4239C13.3929 20.8525 14.6989 20.1082 15.896 19.2089C18.034 17.5899 20 15.2229 20 11.9999V5.35994L12 2.55994L4 5.35994V11.9999C4 15.2229 5.966 17.5879 8.104 19.2099C9.30376 20.1106 10.6129 20.8566 12 21.4279ZM18.072 8.34294L11.001 15.4139L6.758 11.1719L8.173 9.75694L11 12.5859L16.657 6.92894L18.071 8.34294H18.072Z" fill="#D2AE6D"/>
</svg>
