<svg width="38" height="38" viewBox="0 0 38 38" fill="none" xmlns="http://www.w3.org/2000/svg">
<path d="M18.9998 0.696289L34.8332 6.23796V18.9996C34.8332 25.534 30.8226 30.102 27.0812 32.9377C24.8238 34.6335 22.3471 36.0156 19.7187 37.0465C19.6729 37.0642 19.627 37.0816 19.5809 37.0987L19.5413 37.113L19.5303 37.1161L19.5255 37.1177C19.5239 37.1177 19.5223 37.1177 18.9998 35.6246L18.4758 37.1193L18.4694 37.1161L18.4583 37.113L18.4188 37.0971C18.2073 37.019 17.9972 36.9372 17.7886 36.8517C15.3415 35.8426 13.0325 34.5269 10.9169 32.9361C7.18025 30.1035 3.1665 25.5356 3.1665 19.0012V6.23796L18.9998 0.696289ZM18.9998 35.6246L18.4758 37.1193L18.9998 37.303L19.5239 37.1193L18.9998 35.6246ZM18.9998 33.9273L19.0141 33.921C21.2052 33.0161 23.2731 31.8377 25.1685 30.4139C28.5537 27.8505 31.6665 24.1027 31.6665 18.9996V8.48629L18.9998 4.05296L6.33317 8.48629V18.9996C6.33317 24.1027 9.446 27.8473 12.8312 30.4155C14.7307 31.8421 16.8035 33.0221 18.9998 33.9273ZM28.6138 13.2094L17.4181 24.4051L10.7 17.6886L12.9404 15.4482L17.4165 19.9275L26.3734 10.9705L28.6138 13.2094Z" fill="#713CA4"/>
</svg>
