<svg width="38" height="38" viewBox="0 0 38 38" fill="none" xmlns="http://www.w3.org/2000/svg">
<path d="M19 2.375C23.4092 2.375 27.6379 4.12656 30.7556 7.24435C33.8734 10.3621 35.625 14.5908 35.625 19C35.625 23.4092 33.8734 27.6379 30.7556 30.7556C27.6379 33.8734 23.4092 35.625 19 35.625C14.5908 35.625 10.3621 33.8734 7.24435 30.7556C4.12656 27.6379 2.375 23.4092 2.375 19C2.375 14.5908 4.12656 10.3621 7.24435 7.24435C10.3621 4.12656 14.5908 2.375 19 2.375ZM16.929 22.2799L13.2359 18.5844C13.1035 18.452 12.9463 18.347 12.7733 18.2753C12.6003 18.2036 12.4149 18.1668 12.2277 18.1668C12.0405 18.1668 11.855 18.2036 11.6821 18.2753C11.5091 18.347 11.3519 18.452 11.2195 18.5844C10.9521 18.8518 10.8019 19.2144 10.8019 19.5926C10.8019 19.9707 10.9521 20.3334 11.2195 20.6007L15.922 25.3033C16.054 25.4363 16.2111 25.5419 16.3841 25.614C16.5572 25.6861 16.7427 25.7232 16.9302 25.7232C17.1176 25.7232 17.3032 25.6861 17.4763 25.614C17.6493 25.5419 17.8064 25.4363 17.9384 25.3033L27.6759 15.5634C27.81 15.4315 27.9168 15.2744 27.9899 15.1011C28.0631 14.9278 28.1012 14.7417 28.102 14.5536C28.1029 14.3655 28.0665 14.1791 27.995 14.0051C27.9235 13.8312 27.8182 13.6731 27.6853 13.54C27.5524 13.4069 27.3944 13.3014 27.2205 13.2297C27.0466 13.158 26.8602 13.1214 26.6721 13.122C26.484 13.1227 26.2979 13.1606 26.1245 13.2335C25.9511 13.3064 25.7939 13.413 25.6619 13.547L16.929 22.2799Z" fill="#4ECB71"/>
</svg>
