<svg width="38" height="38" viewBox="0 0 38 38" fill="none" xmlns="http://www.w3.org/2000/svg">
<path fill-rule="evenodd" clip-rule="evenodd" d="M33.408 12.6731C33.3209 12.6667 33.2243 12.6667 33.123 12.6667H29.1251C25.8507 12.6667 23.0498 15.2444 23.0498 18.6042C23.0498 21.9641 25.8523 24.5417 29.1251 24.5417H33.123C33.2243 24.5417 33.3209 24.5417 33.4111 24.5354C34.0841 24.4948 34.7193 24.211 35.1985 23.7368C35.6777 23.2625 35.9682 22.6302 36.0157 21.9577C36.0221 21.8627 36.0221 21.7598 36.0221 21.6648V15.5437C36.0221 15.4487 36.0221 15.3457 36.0157 15.2507C35.9682 14.5782 35.6777 13.946 35.1985 13.4717C34.7193 12.9975 34.0841 12.7137 33.4111 12.6731H33.408ZM28.772 20.1876C29.6143 20.1876 30.2967 19.4782 30.2967 18.6042C30.2967 17.7302 29.6143 17.0209 28.772 17.0209C27.9281 17.0209 27.2456 17.7302 27.2456 18.6042C27.2456 19.4782 27.9281 20.1876 28.772 20.1876Z" fill="#713CA4"/>
<path fill-rule="evenodd" clip-rule="evenodd" d="M33.12 26.9167C33.1747 26.9145 33.2292 26.9252 33.279 26.948C33.3288 26.9708 33.3726 27.0051 33.4067 27.048C33.4408 27.0908 33.4642 27.1412 33.4752 27.1948C33.4862 27.2485 33.4844 27.304 33.4699 27.3568C33.1533 28.4842 32.6482 29.4468 31.8391 30.2543C30.6532 31.4418 29.1506 31.9659 27.2949 32.2161C25.4899 32.4583 23.1862 32.4583 20.276 32.4583H16.932C14.0218 32.4583 11.7165 32.4583 9.91309 32.2161C8.05742 31.9659 6.55484 31.4403 5.36892 30.2559C4.18459 29.07 3.65892 27.5674 3.40875 25.7118C3.1665 23.9068 3.1665 21.603 3.1665 18.6928V18.5155C3.1665 15.6053 3.1665 13.3 3.40875 11.495C3.65892 9.63933 4.18459 8.13675 5.36892 6.95083C6.55484 5.7665 8.05742 5.24083 9.91309 4.99067C11.7181 4.75 14.0218 4.75 16.932 4.75H20.276C23.1862 4.75 25.4915 4.75 27.2949 4.99225C29.1506 5.24242 30.6532 5.76808 31.8391 6.95242C32.6482 7.76308 33.1533 8.72417 33.4699 9.8515C33.4844 9.90433 33.4862 9.95984 33.4752 10.0135C33.4642 10.0672 33.4408 10.1175 33.4067 10.1604C33.3726 10.2033 33.3288 10.2375 33.279 10.2603C33.2292 10.2831 33.1747 10.2939 33.12 10.2917H29.1237C24.6318 10.2917 20.6734 13.8383 20.6734 18.6042C20.6734 23.37 24.6318 26.9167 29.1237 26.9167H33.12ZM9.104 11.0833C8.78906 11.0833 8.48701 11.2084 8.26431 11.4311C8.04162 11.6538 7.9165 11.9559 7.9165 12.2708C7.9165 12.5858 8.04162 12.8878 8.26431 13.1105C8.48701 13.3332 8.78906 13.4583 9.104 13.4583H15.4373C15.7523 13.4583 16.0543 13.3332 16.277 13.1105C16.4997 12.8878 16.6248 12.5858 16.6248 12.2708C16.6248 11.9559 16.4997 11.6538 16.277 11.4311C16.0543 11.2084 15.7523 11.0833 15.4373 11.0833H9.104Z" fill="#713CA4"/>
</svg>
