<svg width="38" height="38" viewBox="0 0 38 38" fill="none" xmlns="http://www.w3.org/2000/svg">
<path d="M30.1623 7.77459C28.7107 6.3083 26.9816 5.14573 25.076 4.35467C23.1704 3.56361 21.1264 3.1599 19.0631 3.16709C10.4181 3.16709 3.37227 10.2129 3.37227 18.8579C3.37227 21.6288 4.10061 24.3204 5.46227 26.6954L3.24561 34.8338L11.5581 32.6488C13.8539 33.8996 16.4348 34.5646 19.0631 34.5646C27.7081 34.5646 34.7539 27.5188 34.7539 18.8738C34.7539 14.6779 33.1231 10.7354 30.1623 7.77459ZM19.0631 31.9046C16.7198 31.9046 14.4239 31.2713 12.4131 30.0838L11.9381 29.7988L6.99811 31.0971L8.31227 26.2838L7.99561 25.7929C6.6937 23.714 6.00241 21.3109 6.00061 18.8579C6.00061 11.6696 11.8589 5.81125 19.0473 5.81125C22.5306 5.81125 25.8081 7.17292 28.2623 9.64292C29.4775 10.8525 30.4405 12.2913 31.0955 13.8758C31.7505 15.4604 32.0845 17.1592 32.0781 18.8738C32.1098 26.0621 26.2514 31.9046 19.0631 31.9046ZM26.2198 22.1513C25.8239 21.9613 23.8923 21.0113 23.5439 20.8688C23.1798 20.7421 22.9264 20.6788 22.6573 21.0588C22.3881 21.4546 21.6439 22.3413 21.4223 22.5946C21.2006 22.8638 20.9631 22.8954 20.5673 22.6896C20.1714 22.4996 18.9048 22.0721 17.4164 20.7421C16.2448 19.6971 15.4689 18.4146 15.2314 18.0188C15.0098 17.6229 15.1998 17.4171 15.4056 17.2113C15.5798 17.0371 15.8014 16.7521 15.9914 16.5304C16.1814 16.3088 16.2606 16.1346 16.3873 15.8813C16.5139 15.6121 16.4506 15.3904 16.3556 15.2004C16.2606 15.0104 15.4689 13.0788 15.1523 12.2871C14.8356 11.5271 14.5031 11.6221 14.2656 11.6063H13.5056C13.2364 11.6063 12.8248 11.7013 12.4606 12.0971C12.1123 12.4929 11.0989 13.4429 11.0989 15.3746C11.0989 17.3063 12.5081 19.1746 12.6981 19.4279C12.8881 19.6971 15.4689 23.6554 19.3956 25.3496C20.3298 25.7613 21.0581 25.9988 21.6281 26.1729C22.5623 26.4738 23.4173 26.4263 24.0981 26.3313C24.8581 26.2204 26.4256 25.3813 26.7423 24.4629C27.0748 23.5446 27.0748 22.7688 26.9639 22.5946C26.8531 22.4204 26.6156 22.3413 26.2198 22.1513Z" fill="#713CA4"/>
</svg>
